<?xml version="1.0" encoding="UTF-8" standalone="no"?>
<!-- Created with Inkscape (http://www.inkscape.org/) -->

<svg
   xmlns:dc="http://purl.org/dc/elements/1.1/"
   xmlns:cc="http://creativecommons.org/ns#"
   xmlns:rdf="http://www.w3.org/1999/02/22-rdf-syntax-ns#"
   xmlns:svg="http://www.w3.org/2000/svg"
   xmlns="http://www.w3.org/2000/svg"
   xmlns:sodipodi="http://sodipodi.sourceforge.net/DTD/sodipodi-0.dtd"
   xmlns:inkscape="http://www.inkscape.org/namespaces/inkscape"
   version="1.1"
   id="svg64"
   width="960"
   height="960"
   viewBox="0 0 960 960"
   sodipodi:docname="logoNERD.svg"
   inkscape:version="0.92.1 r">
  <metadata
     id="metadata70">
    <rdf:RDF>
      <cc:Work
         rdf:about="">
        <dc:format>image/svg+xml</dc:format>
        <dc:type
           rdf:resource="http://purl.org/dc/dcmitype/StillImage" />
        <dc:title></dc:title>
      </cc:Work>
    </rdf:RDF>
  </metadata>
  <defs
     id="defs68" />
  <sodipodi:namedview
     pagecolor="#ffffff"
     bordercolor="#666666"
     borderopacity="1"
     objecttolerance="10"
     gridtolerance="10"
     guidetolerance="10"
     inkscape:pageopacity="0"
     inkscape:pageshadow="2"
     inkscape:window-width="1920"
     inkscape:window-height="1052"
     id="namedview66"
     showgrid="false"
     inkscape:zoom="1.4166667"
     inkscape:cx="609.17647"
     inkscape:cy="461.36855"
     inkscape:window-x="0"
     inkscape:window-y="0"
     inkscape:window-maximized="1"
     inkscape:current-layer="svg64" />
  <path
     style="fill:#000000"
     d="m 475.35243,724.2707 -7.88226,-0.56662 -7.40313,-24.36683 c -9.21156,-30.31911 -9.44909,-30.89721 -13.01645,-31.67944 -7.88315,-1.72855 -24.44802,-6.9856 -32.93744,-10.45307 l -9.5706,-3.90907 -14.15393,10.68343 c -19.59459,14.79005 -30.66076,22.22407 -33.09141,22.23008 -2.24116,0.006 -16.60477,-9.44512 -28.56252,-18.79297 -6.85729,-5.36062 -7.47723,-6.14265 -7.23424,-9.12576 0.14617,-1.79449 4.34574,-14.68429 9.33238,-28.644 l 9.06662,-25.38131 -7.97088,-10.1216 c -4.38398,-5.56688 -10.15855,-13.90832 -12.83238,-18.53654 l -4.8615,-8.41494 -12,0.57713 c -6.6,0.31742 -20.51328,0.65762 -30.91839,0.75601 l -18.91839,0.17888 -5.2903,-14 c -2.90967,-7.7 -6.08086,-17.32479 -7.04709,-21.38843 l -1.75679,-7.38842 3.46548,-2.89458 c 1.90602,-1.59201 13.72297,-9.74222 26.25991,-18.11157 l 22.79442,-15.217 -0.54675,-5.919 c -0.30072,-3.25545 -0.65821,-5.96531 -0.79443,-6.02191 -0.13622,-0.0566 -10.65237,0.13194 -23.36923,0.419 l -23.12155,0.52191 -3.37845,4.42383 c -1.85814,2.4331 -5.40344,5.50469 -7.87844,6.82574 -3.80652,2.03177 -5.60756,2.34922 -11.68698,2.05992 -6.0638,-0.28854 -7.86102,-0.81414 -11.5,-3.36315 -12.23198,-8.56818 -13.1566,-26.00467 -1.89033,-35.64817 6.48647,-5.55217 14.1757,-7.00619 22.33982,-4.22439 4.32189,1.47262 11.78156,8.05844 12.88825,11.37849 0.35093,1.05281 5.00186,1.1628 24.02894,0.56826 l 23.59378,-0.73724 0.60226,-3.64164 c 1.11732,-6.75614 1.09119,-6.79048 -11.62574,-15.27898 -19.20513,-12.81934 -38.8265,-26.89846 -39.33545,-28.22475 -0.5823,-1.51745 4.45533,-19.27578 8.79976,-31.02033 2.32019,-6.27231 3.93735,-9.18019 5.50335,-9.89578 1.48094,-0.67672 12.25096,-0.71578 32.41962,-0.11759 l 30.20196,0.89578 4.48014,-7 c 3.97319,-6.20791 11.19264,-15.90848 18.66493,-25.07956 2.49027,-3.05641 2.49729,-3.12028 0.93384,-8.5 -0.86641,-2.98124 -4.67138,-14.19544 -8.4555,-24.92044 -9.05076,-25.65178 -9.74655,-28.34632 -7.89935,-30.59101 4.53755,-5.51397 32.52425,-23.40899 36.6102,-23.40899 1.36481,0 9.99398,5.73296 21.55135,14.31805 10.60133,7.87493 21.3529,15.73044 23.89237,17.45669 l 4.61721,3.13863 8.88279,-3.53191 c 4.88553,-1.94255 14.48261,-4.99498 21.32685,-6.78319 l 12.44408,-3.25129 8.55592,-28.31609 c 7.74586,-25.63514 8.79263,-28.4047 11.05593,-29.25197 3.76594,-1.40978 23.0873,-2.00338 35.44197,-1.08886 l 10.94196,0.80994 9.17659,29.78522 c 5.04712,16.38186 9.37877,29.9874 9.62588,30.23452 0.24712,0.24712 4.91878,1.77823 10.38146,3.40247 11.10786,3.30275 23.15016,8.00779 27.07122,10.57696 2.18439,1.43127 2.37725,1.90945 1.22645,3.04086 -1.74171,1.71236 -39.71594,24.65949 -74.06808,44.75797 -27.46619,16.06971 -34.04243,19.702 -35.6703,19.702 -0.5239,0 -1.32932,-2.8125 -1.78984,-6.25 l -0.83731,-6.25 -29.74153,-0.26487 -29.74152,-0.26487 -0.25848,55.26487 -0.25847,55.26487 -46.94717,0.26002 c -36.0322,0.19956 -47.13027,0.5483 -47.73469,1.5 -0.93374,1.47021 -1.06529,21.61153 -0.17629,26.98998 l 0.61983,3.75 h 47.36916 47.36916 v 55.5 55.5 h 30 30 v -7 c 0,-4.44791 0.40329,-7 1.10617,-7 1.03059,0 46.45674,26.49747 50.52108,29.46939 1.76334,1.28938 1.69997,1.69254 -1.49394,9.50419 -1.83446,4.48672 -3.08626,8.40681 -2.78177,8.71129 0.30448,0.30449 10.13745,1.23119 21.85103,2.05935 l 21.29743,1.50574 11.31376,7.02555 c 9.00555,5.59221 11.04573,7.26642 10,8.20621 -2.19151,1.9695 -13.49848,6.61485 -29.30915,12.04136 l -14.99538,5.1467 -7.82434,26.41511 c -4.30339,14.52831 -8.14025,26.73989 -8.52636,27.13685 -2.21567,2.27794 -21.99521,3.17804 -40.54079,1.84488 z M 224.80983,476.92228 c 0.86633,-0.67001 2.38058,-2.4557 3.36501,-3.9682 1.71983,-2.64238 1.71983,-2.85762 0,-5.5 -2.35394,-3.61665 -4.46623,-5.17926 -7.05379,-5.2182 -3.00614,-0.0452 -7.38636,4.68003 -7.38636,7.9682 0,3.28817 4.38022,8.01343 7.38636,7.9682 1.1625,-0.0175 2.82245,-0.58 3.68878,-1.25 z m 429.67486,180.71883 c -3.7125,-1.90554 -6.74979,-3.7959 -6.74954,-4.20082 2.5e-4,-0.40492 4.93493,-5.3663 10.96595,-11.02529 35.33178,-33.15236 60.40889,-77.57194 69.89418,-123.80494 4.13476,-20.15354 4.61246,-25.51632 4.57904,-51.40598 -0.0281,-21.77436 -0.36017,-27.39889 -2.27286,-38.49688 -6.03481,-35.01572 -17.46653,-64.26158 -35.90882,-91.86583 -10.37996,-15.53665 -16.73487,-23.13732 -31.99798,-38.27065 -9.71956,-9.63691 -12.91507,-13.38841 -12.00298,-14.09139 0.68366,-0.52692 3.86936,-2.43467 7.07933,-4.23943 7.31196,-4.11103 7.61734,-3.97498 19.88756,8.8599 47.69266,49.88738 72.77612,111.60758 72.77612,179.0724 0,70.72153 -26.58,134.30224 -76.83027,183.78188 -5.16674,5.0875 -10.13109,9.22787 -11.0319,9.20082 -0.90081,-0.0271 -4.67533,-1.60826 -8.38783,-3.51379 z m -64.25,-35.78481 c -18.89911,-11.44506 -16.20473,-8.72053 -37.05467,-37.46923 l -8.05467,-11.10608 -5.20963,6.96154 c -2.86531,3.82885 -5.65766,6.96155 -6.20524,6.96155 -1.06479,0 -45.01199,-24.87217 -58.69536,-33.21898 -4.52076,-2.75765 -8.50082,-5.90004 -8.84456,-6.98309 -0.83713,-2.63755 -0.79871,-149.40182 0.0395,-150.75801 0.36139,-0.58474 3.0091,-2.56773 5.88381,-4.40666 6.48071,-4.14566 62.12922,-37.08859 97.64086,-57.80166 43.13456,-25.15933 39.02073,-23.33702 44.34563,-19.64382 12.64702,8.77162 30.97282,28.58756 42.82957,46.31222 22.78151,34.05613 33.82476,70.29851 33.82476,111.00815 0,54.02188 -19.87275,101.96062 -59.42809,143.35747 -9.25973,9.69083 -18.81755,17.1464 -21.93192,17.10798 -1.17699,-0.0145 -9.78999,-4.65914 -19.13999,-10.32138 z m -26,-124.54226 c 2.2,-1.01537 5.1192,-3.06057 6.48711,-4.54489 l 2.48711,-2.69876 -2.48711,-1.89468 c -2.41512,-1.83983 -2.53053,-1.84129 -3.98711,-0.0502 -0.825,1.01446 -2.48292,2.34715 -3.68426,2.96152 -3.16504,1.61862 -10.50979,1.36985 -13.09895,-0.44366 -2.21349,-1.55039 -5.21679,-6.38029 -5.21679,-8.38963 0,-0.68623 5.19356,-1.04966 15,-1.04966 h 15 v -3.30366 c 0,-4.6946 -4.3694,-12.79309 -8.35666,-15.48872 -7.15233,-4.8354 -15.15515,-4.14995 -22.01156,1.8853 -13.75243,12.10537 -5.40454,34.70765 12.86822,34.84123 1.65,0.0121 4.8,-0.80883 7,-1.82419 z m -18.31642,-24.76106 c 0.48274,-4.04462 4.85488,-6.73352 10.94869,-6.73352 4.36645,0 5.49595,0.41365 7.50394,2.74808 1.30008,1.51144 2.36379,3.62297 2.36379,4.6923 0,1.80298 -0.76769,1.94424 -10.56642,1.94424 h -10.56642 z m -58.18358,4.1511 c 0,-16.81007 0.27941,-21.5 1.28091,-21.5 0.70451,0 8.01701,9.67437 16.25,21.49861 l 14.96909,21.4986 3.75,0.001 3.75,10e-4 v -28.5 -28.5 h -3.5 -3.5 v 21.58333 c 0,16.81605 -0.2761,21.49386 -1.25,21.17826 -0.6875,-0.2228 -7.93946,-9.9353 -16.11547,-21.58334 l -14.86547,-21.17746 h -3.88453 -3.88453 v 28.5 28.5 h 3.5 3.5 z m 104,8.5 v -13 h 3.34501 c 4.12833,0 4.79966,0.75608 12.75841,14.36926 3.495,5.97809 6.88367,11.07229 7.53037,11.32045 0.6467,0.24817 2.56476,0.307 4.26236,0.13075 l 3.08655,-0.32046 -7.49135,-12.26531 c -4.12024,-6.74592 -7.47504,-12.59592 -7.45511,-13 0.0199,-0.40408 1.90902,-1.63469 4.19799,-2.73469 5.90935,-2.83984 8.26577,-6.49553 8.26577,-12.82333 0,-3.75357 -0.61312,-6.03622 -2.23031,-8.30338 -3.79274,-5.31713 -8.227,-6.76639 -22.01969,-7.19673 l -12.25,-0.38221 v 28.60282 28.60283 h 4 4 z m 0,-28.63151 v -8.6315 l 7.44048,0.4775 c 8.27564,0.53109 12.17304,2.39745 13.15205,6.29816 1.771,7.05624 -2.65977,10.48735 -13.54287,10.48735 h -7.04966 z m 70.0245,37.87815 c 6.8191,-3.42599 12.41294,-9.34516 14.64408,-15.49577 3.50795,-9.67036 0.27938,-21.97455 -7.63926,-29.11354 -7.30768,-6.58819 -11.69184,-7.97147 -26.77932,-8.44933 l -13.25,-0.41966 v 28.71395 28.71394 l 13.2745,-0.34812 c 12.65071,-0.33175 13.57879,-0.50099 19.75,-3.60147 z m -25.0245,-24.77406 v -21.77207 l 8.82144,0.62617 c 10.07602,0.71521 14.67438,2.32298 18.99162,6.64022 4.01903,4.01903 5.49326,8.88157 5.00717,16.51544 -0.80471,12.63774 -8.20123,18.58525 -24.0559,19.34327 l -8.76433,0.41903 z M 89.751885,589.95408 c -21.900748,-25.34749 -35.94241,-55.56984 -42.163523,-90.75 -1.757592,-9.93912 -1.757592,-44.06088 0,-54 6.301652,-35.63561 19.333204,-63.54359 42.375443,-90.75 3.843,-4.5375 7.736638,-8.25 8.652534,-8.25 1.672251,0 17.118351,14.79753 17.118351,16.39956 0,0.47042 -3.08142,4.51047 -6.84759,8.97788 -18.337595,21.75193 -29.17929,43.99598 -34.676679,71.14665 -3.344669,16.51875 -3.538084,42.44867 -0.43038,57.69843 5.803829,28.47988 16.997164,51.56364 35.368899,72.94047 3.62216,4.21465 6.58575,8.11316 6.58575,8.66336 0,1.40874 -16.061191,16.17365 -17.593611,16.17365 -0.693566,0 -4.468704,-3.7125 -8.389194,-8.25 z M 128.805,557.59063 c -14.00856,-15.32759 -24.25653,-35.64823 -29.697281,-58.88655 -2.628986,-11.22882 -2.658406,-40.33192 -0.0531,-52.5 4.772371,-22.28909 15.534561,-43.66368 29.956781,-59.49662 l 5.46232,-5.99662 8.63047,8.424 c 4.74677,4.6332 8.63048,8.82971 8.63048,9.32558 0,0.49586 -2.1823,3.45354 -4.84955,6.57262 -12.68005,14.82799 -20.63102,31.95221 -23.75928,51.17104 -4.57042,28.07884 3.50705,58.2489 21.66517,80.92131 3.26901,4.08172 5.94366,7.91666 5.94366,8.52208 0,0.60542 -3.75225,4.83352 -8.33833,9.39578 l -8.33834,8.29502 -5.25302,-5.74764 z m 35.66877,-36.18556 c -23.31271,-29.67335 -22.94231,-70.02426 0.91288,-99.44714 2.11642,-2.61038 4.33072,-4.74788 4.92066,-4.75 0.58994,-0.002 4.78364,3.79813 9.31933,8.445 l 8.24672,8.44884 -4.1594,5.63037 c -14.63419,19.80957 -14.77105,44.80712 -0.3537,64.60592 1.85594,2.54868 3.37443,5.25924 3.37443,6.02346 0,1.62031 -15.02526,16.84256 -16.62461,16.84256 -0.5942,0 -3.13054,-2.60955 -5.63631,-5.79901 z m 662.26092,-26.20099 v -4 h 5.97582 5.97582 l 0.27418,-16.75 0.27418,-16.75 h 4.5 4.5 l 0.27418,16.75 0.27418,16.75 h 5.47582 5.47582 v 4 4 h -16.5 -16.5 z m -5.28628,-12.61961 c -0.39255,-0.39255 -0.71372,-8.04127 -0.71372,-16.99715 v -16.28343 l -5.75,-0.29991 -5.75,-0.2999 -0.31037,-3.75 -0.31036,-3.75 h 16.56036 16.56037 v 3.9501 3.95009 l -5.61939,0.29991 -5.61939,0.2999 -0.13061,16.5 -0.13061,16.5 -4.03628,0.29705 c -2.21995,0.16338 -4.35745,-0.0241 -4.75,-0.41666 z m -58.71372,-2.38039 c -5.14676,-5.14676 -0.78824,-11.75352 8.37795,-12.69956 5.81107,-0.59975 6.46455,-1.05794 4.42205,-3.10044 -1.44671,-1.44671 -5.25694,-1.561 -7.73987,-0.23218 -1.35335,0.72429 -2.23348,0.49811 -3.49771,-0.89885 -1.59588,-1.76342 -1.56288,-1.95524 0.59664,-3.46782 2.79308,-1.95636 12.586,-2.11111 15.05163,-0.23785 2.72762,2.07231 3.78931,6.19146 3.78931,14.7018 v 7.9349 h -3.5 c -1.925,0 -3.5,-0.46583 -3.5,-1.03518 0,-0.71358 -0.60093,-0.71358 -1.93426,0 -3.31345,1.7733 -9.85033,1.25059 -12.06574,-0.96482 z m 12.17126,-4.65499 c 2.46232,-2.22837 2.30204,-3.34501 -0.48013,-3.34501 -2.96902,0 -6.20636,2.35733 -5.28489,3.8483 1.0193,1.64926 3.63921,1.42054 5.76502,-0.50329 z m 16.22874,3.25499 c -2.93723,-2.93723 -3.4,-4.06387 -3.4,-8.27749 0,-7.67356 4.73491,-12.32251 12.55034,-12.32251 5.13037,0 10.44966,5.29402 10.44966,10.4 v 3.6 h -8.62197 -8.62197 l 1.48657,2.25 c 1.79354,2.71462 5.20496,3.3836 8.43612,1.65433 2.03111,-1.08701 2.63265,-1.01728 4.10076,0.47541 1.62897,1.65623 1.59491,1.85224 -0.64029,3.68477 -1.63434,1.33991 -3.89604,1.93549 -7.35,1.93549 -4.34068,0 -5.43118,-0.44196 -8.38922,-3.4 z m 11.6,-12.56482 c 0,-1.8661 -3.8658,-3.17737 -6,-2.03518 -3.19031,1.7074 -2.32858,3 2,3 2.2,0 4,-0.43417 4,-0.96482 z m 59.73616,14.71482 c -2.64572,-2.00908 -3.73616,-6.33302 -3.73616,-14.8151 v -7.9349 h 3.5 3.5 v 7.06574 c 0,8.2334 1.11154,10.93426 4.5,10.93426 3.38846,0 4.5,-2.70086 4.5,-10.93426 v -7.06574 h 3.5 3.5 v 12 12 h -3.03138 c -1.75905,0 -3.27067,-0.62355 -3.60148,-1.48563 -0.50429,-1.31417 -0.81488,-1.31417 -2.69112,0 -2.58655,1.81169 -7.7046,1.93302 -9.93986,0.23563 z m 24.3028,-0.93856 c -5.23606,-5.62025 0.61781,-12.81144 10.42892,-12.81144 3.77392,0 4.45095,-0.99255 2.0412,-2.99246 -0.98334,-0.8161 -2.97354,-1.01502 -5.84588,-0.58428 -3.20603,0.48077 -4.67203,0.27103 -5.55676,-0.795 -0.96946,-1.16813 -0.76292,-1.75546 1.06839,-3.03816 2.28428,-1.59997 11.08057,-2.1968 14.28037,-0.96892 3.08962,1.1856 4.5448,5.9337 4.5448,14.82916 v 8.54966 h -3.5 c -2.05556,0 -3.5,-0.49524 -3.5,-1.2 0,-0.93333 -0.26667,-0.93333 -1.2,0 -0.66,0.66 -3.34247,1.2 -5.96104,1.2 -3.61002,0 -5.25399,-0.52911 -6.8,-2.18856 z m 12.51991,-4.3856 c 1.06762,-0.86578 1.37863,-1.28923 0.69113,-0.94098 -0.6875,0.34825 -1.25,0.19412 -1.25,-0.34251 0,-0.53663 0.5625,-1.20266 1.25,-1.48007 0.6875,-0.27741 0.0985,-0.53991 -1.30887,-0.58333 -3.13454,-0.0967 -6.50545,2.19894 -5.53489,3.76935 1.0048,1.6258 3.86942,1.42911 6.15263,-0.42246 z"
     id="path80"
     inkscape:connector-curvature="0" />
</svg>
